<?xml version="1.0" encoding="iso-8859-1"?>
<!-- Generator: Adobe Illustrator 19.0.0, SVG Export Plug-In . SVG Version: 6.00 Build 0)  -->
<svg version="1.1" id="Capa_1" xmlns="http://www.w3.org/2000/svg" xmlns:xlink="http://www.w3.org/1999/xlink" x="0px" y="0px"
	 viewBox="0 0 512.001 512.001" style="enable-background:new 0 0 512.001 512.001;" xml:space="preserve">
<path style="fill:#17ACE8;" d="M289.659,175.66c1.8-12.001,1.8-24,0-36l20.4-14.7c4.801-3.9,6.601-10.201,4.2-15.899l-11.4-27.902
	c-2.401-5.4-8.101-9-14.399-8.099l-24.901,3.9c-7.2-9.6-15.601-18.301-25.199-25.501l3.6-24.6c1.199-5.999-2.401-11.999-7.8-14.399
	l-27.9-11.4c-5.7-2.401-12.001-0.601-15.901,4.2l-14.7,20.4c-7.5-1.199-15-1.5-22.5-1.199c-4.501,0-9,0.599-13.5,1.199l-14.7-20.4
	c-3.9-4.801-10.201-6.601-15.899-4.2l-27.902,11.4c-5.4,2.401-9,8.401-8.099,14.399l3.9,24.901
	c-9.6,7.2-18.301,15.601-25.501,25.201l-24.6-3.9c-5.999-0.901-11.999,2.699-14.399,8.099l-11.4,27.902
	c-2.401,5.698-0.601,11.999,4.2,15.899l20.4,14.7c-1.8,12.001-1.8,24,0,36l-20.4,14.7c-4.801,3.9-6.601,10.199-4.2,15.899
	l11.4,27.902c2.401,5.4,8.401,9,14.399,7.798l24.901-3.6c7.2,9.6,15.601,18.301,25.201,25.501l-3.9,24.6
	c-0.901,5.999,2.699,11.999,8.099,14.399l27.902,11.4c5.698,2.401,12.299,0.601,15.899-4.2l14.7-20.4c4.501,0.601,9,1.199,13.5,1.5
	c7.5,0,15-0.3,22.5-1.5l14.7,20.4c2.701,3.3,6.601,5.4,10.8,5.4c1.8,0,3.6-0.599,5.101-1.199l27.9-11.4
	c5.4-2.401,9-8.401,7.8-14.399l-3.6-24.901c9.598-7.2,17.999-15.601,25.499-25.201l24.6,3.6c6.299,1.201,11.999-2.399,14.399-7.798
	l11.4-27.902c2.401-5.7,0.601-11.999-4.2-15.899L289.659,175.66z M226.96,186.46c-7.8,18.3-22.202,32.701-40.501,40.499
	c-9.6,3.9-19.2,5.7-28.799,5.7c-1.501,0-3.001,0-4.501-0.298c-27.9-1.501-53.401-18.602-64.799-45.901c-7.8-18.6-7.8-39,0-57.599
	c7.798-18.3,22.2-32.701,40.499-40.499c7.8-3.301,15.899-5.402,24.3-5.7c11.4-0.601,22.5,1.199,33.3,5.7
	c18.3,7.798,32.701,22.2,40.501,40.499C234.758,147.46,234.758,167.86,226.96,186.46z"/>
<path style="fill:#1689FC;" d="M310.058,190.36c4.801,3.9,6.601,10.199,4.2,15.899l-11.4,27.902c-2.401,5.4-8.101,9-14.399,7.798
	l-24.6-3.6c-7.5,9.6-15.901,18.001-25.499,25.201l3.6,24.901c1.199,5.999-2.401,11.999-7.8,14.399l-27.9,11.4
	c-1.501,0.601-3.301,1.199-5.101,1.199c-4.199,0-8.099-2.1-10.8-5.4l-14.7-20.4c-7.5,1.199-15,1.5-22.5,1.5V232.36
	c1.5,0.298,2.999,0.298,4.501,0.298c9.598,0,19.199-1.8,28.799-5.7c18.3-7.798,32.701-22.2,40.501-40.499
	c7.798-18.6,7.798-39,0-57.599c-7.8-18.3-22.202-32.701-40.501-40.499c-10.8-4.501-21.899-6.301-33.3-5.7v-58.2
	c7.5-0.3,15,0,22.5,1.199l14.7-20.4c3.9-4.801,10.201-6.601,15.901-4.2l27.9,11.4c5.4,2.401,9,8.401,7.8,14.399l-3.6,24.6
	c9.598,7.2,17.999,15.901,25.199,25.501l24.901-3.9c6.299-0.901,11.999,2.699,14.399,8.099l11.4,27.902
	c2.401,5.698,0.601,11.999-4.2,15.899l-20.4,14.7c1.8,12.001,1.8,24,0,36L310.058,190.36z"/>
<path style="fill:#B7E0F6;" d="M502.099,320.901l-24.6-6c-2.999-11.7-7.5-22.8-13.499-33.3l12.9-21.301
	c3.3-5.4,2.399-12.001-2.1-16.5l-21-21c-4.501-4.501-11.1-5.4-16.5-2.1L416,233.6c-10.499-6-21.599-10.499-33.3-13.5l-6-24.598
	c-1.5-6-6.899-9.5-12.9-9.5h-30c-6,0-11.4,3.5-12.9,9.5l-6,24.598c-11.7,3.001-22.8,7.5-33.3,13.5l-21.301-12.9
	c-5.4-3.3-11.999-2.401-16.5,2.1l-21,21c-4.499,4.499-5.4,11.1-2.1,16.5l12.9,21.301C227.6,292.1,223.1,303.2,220.1,314.901l-24.6,6
	c-6,1.5-9.501,6.899-9.501,12.9v30c0,6,3.5,11.4,9.501,12.9l24.6,6c2.999,11.699,7.5,22.8,13.499,33.3l-12.9,21.301
	c-3.3,5.4-2.399,11.999,2.1,16.5l21,21c4.501,4.499,11.1,5.4,16.5,2.098l21.301-12.9c10.499,6,21.599,10.501,33.3,13.5l6,24.6
	c1.5,6,6.899,9.901,12.9,9.901h30c6,0,11.4-3.9,12.9-9.901l6-24.6c11.7-2.999,22.8-7.5,33.3-13.5l21.301,12.9
	c5.4,3.301,11.999,2.401,16.5-2.098l21-21c4.499-4.501,5.4-11.1,2.1-16.5l-12.9-21.301C470,405.502,474.5,394.4,477.5,382.701
	l24.6-6c6-1.5,9.901-6.899,9.901-12.9v-30C512,327.801,508.1,322.401,502.099,320.901z M348.8,423.801c-41.4,0-75-33.6-75-75
	s33.6-75,75-75s75,33.6,75,75S390.2,423.801,348.8,423.801z"/>
<path style="fill:#A4D9F5;" d="M512,333.801v30c0,6-3.9,11.4-9.901,12.9l-24.6,6C474.5,394.4,469.999,405.5,464,416l12.9,21.301
	c3.3,5.4,2.399,11.999-2.1,16.5l-21,21c-4.501,4.499-11.1,5.4-16.5,2.098L416,464c-10.499,6-21.599,10.501-33.3,13.5l-6,24.6
	c-1.5,6-6.899,9.901-12.9,9.901h-15v-88.2c41.4,0,75-33.6,75-75s-33.6-75-75-75v-87.8h15c6,0,11.4,3.5,12.9,9.5l6,24.598
	c11.7,3.001,22.8,7.5,33.3,13.5l21.301-12.9c5.4-3.3,11.999-2.401,16.5,2.1l21,21c4.499,4.499,5.4,11.1,2.1,16.5l-12.9,21.301
	C470,292.099,474.5,303.199,477.5,314.9l24.6,6C508.1,322.401,512,327.801,512,333.801z"/>
<g>
</g>
<g>
</g>
<g>
</g>
<g>
</g>
<g>
</g>
<g>
</g>
<g>
</g>
<g>
</g>
<g>
</g>
<g>
</g>
<g>
</g>
<g>
</g>
<g>
</g>
<g>
</g>
<g>
</g>
</svg>
