<?xml version="1.0" encoding="iso-8859-1"?>
<!-- Generator: Adobe Illustrator 19.0.0, SVG Export Plug-In . SVG Version: 6.00 Build 0)  -->
<svg version="1.1" id="Capa_1" xmlns="http://www.w3.org/2000/svg" xmlns:xlink="http://www.w3.org/1999/xlink" x="0px" y="0px"
	 viewBox="0 0 512 512" style="enable-background:new 0 0 512 512;" xml:space="preserve">
<path style="fill:#304FFE;" d="M447.295,512l-69.107-73.634l-61.094,65.1L256,438.366l-61.094,65.1l-61.094-65.1L64.705,512V191.295
	C64.705,85.812,150.517,0,256,0s191.295,85.812,191.295,191.295V512z M256,414.95l61.094,65.1l61.094-65.1l53.082,56.567V191.295
	c0-96.649-78.621-175.27-175.27-175.27S80.73,94.646,80.73,191.295v280.222l53.082-56.567l61.094,65.1L256,414.95z"/>
<path style="fill:#B1FFFF;" d="M256,382.751l-61.094,65.1l-61.094-65.1l-31.048,33.051V191.295
	c0-84.49,68.746-153.236,153.236-153.236s153.236,68.746,153.236,153.236v224.536l-31.048-33.051l-61.094,65.1L256,382.751z"/>
<polygon style="fill:#304FFE;" points="296.733,311.501 256,268.104 215.267,311.501 174.544,268.104 139.65,305.281 
	127.972,294.314 174.544,244.688 215.267,288.085 256,244.688 296.733,288.085 337.456,244.688 384.028,294.314 372.35,305.281 
	337.456,268.104 "/>
<g>
</g>
<g>
</g>
<g>
</g>
<g>
</g>
<g>
</g>
<g>
</g>
<g>
</g>
<g>
</g>
<g>
</g>
<g>
</g>
<g>
</g>
<g>
</g>
<g>
</g>
<g>
</g>
<g>
</g>
</svg>
