<svg id="Capa_1" enable-background="new 0 0 512 512" height="512" viewBox="0 0 512 512" width="512" xmlns="http://www.w3.org/2000/svg"><g><path d="m103.286 0h30v83.857h-30z" fill="#3c4a83"/><path d="m172.143 0h30v83.857h-30z" fill="#3c4a83"/><path d="m241 0h30v83.86h-30z" fill="#3c4a83"/><path d="m256 0h15v83.86h-15z" fill="#2a386b"/><path d="m309.857 0h30v83.857h-30z" fill="#2a386b"/><path d="m378.714 0h30v83.857h-30z" fill="#2a386b"/><path d="m103.286 428.143h30v83.857h-30z" fill="#3c4a83"/><path d="m172.143 428.143h30v83.857h-30z" fill="#3c4a83"/><path d="m241 428.14h30v83.86h-30z" fill="#3c4a83"/><g fill="#2a386b"><path d="m256 428.14h15v83.86h-15z"/><path d="m309.857 428.143h30v83.857h-30z"/><path d="m378.714 428.143h30v83.857h-30z"/><path d="m428.143 103.286h83.857v30h-83.857z"/><path d="m428.143 172.143h83.857v30h-83.857z"/><path d="m428.143 241h83.857v30h-83.857z"/><path d="m428.143 309.857h83.857v30h-83.857z"/><path d="m428.143 378.714h83.857v30h-83.857z"/></g><path d="m0 103.286h83.857v30h-83.857z" fill="#3c4a83"/><path d="m0 172.143h83.857v30h-83.857z" fill="#3c4a83"/><path d="m0 241h83.857v30h-83.857z" fill="#3c4a83"/><path d="m0 309.857h83.857v30h-83.857z" fill="#3c4a83"/><path d="m0 378.714h83.857v30h-83.857z" fill="#3c4a83"/><path d="m68.86 68.86v374.28h374.28v-374.28z" fill="#f3f6ff"/><path d="m256 68.86h187.14v374.28h-187.14z" fill="#cddbf9"/><path d="m152.71 152.71h206.58v206.58h-206.58z" fill="#3c4a83"/><path d="m256 152.71h103.29v206.58h-103.29z" fill="#2a386b"/><path d="m137.71 137.71v236.58h236.58v-236.58zm206.58 206.58h-176.58v-107.72h38.86v68.86h137.72zm0-68.86h-107.72v-68.86h-68.86v-38.86h107.72v68.86h68.86zm0-68.86h-38.86v-38.86h38.86z" fill="#60e2f4"/><path d="m256 137.71v30h19.43v68.86h68.86v38.86h-88.29v30h88.29v38.86h-88.29v30h118.29v-236.58zm88.29 68.86h-38.86v-38.86h38.86z" fill="#29c5ec"/></g></svg>